Patient4_TMGait_0pt8_01_right_04_EMG.mot
version=1
nRows=23
nColumns=33
inDegrees=no
endheader
time	1LAddLong	2LGlutMax	3LGlutMed	4LIliopsoas	5LSemiMemb	6LBicFemLong	7LRecFem	8LVastMed	9LVastLat	10LGasMed	11LTibAnt	12lTibPost	13LPeroneusLong	14LSol	15LExtDigLong	16LFlexDigLong	17RAddLong	18RGlutMax	19RGlutMed	20RIliopsoas	21RSemiMemb	22RBicFemLong	23RRecFem	24RVastMed	25RVastLat	26RGasMed	27RTibAnt	28RTibPost	29RPeroneusLong	30RSol	31RExtDigLong	32RFlexDigLong
4.562	0.006104	-0.48752	0.13901	-0.015106	0.016479	-0.049896	0.010986	-0.010376	0.1088	0.039673	0.014038	0.021515	-0.089569	-0.26154	0.49362	0.01709	-0.12207	0.40115	0.42145	0	0.26581	0.015259	0.39169	0.88669	0.088654	-0.006714	-1.194	0.002289	-0.019073	-0.17609	-0.00061	-0.022583
4.563	0.002289	-0.43823	0.13855	-0.010834	0.020294	-0.049744	0.027618	-0.014191	0.112	0.040436	0.14374	-0.011749	-0.054932	-0.16541	0.15625	0.011444	-0.054932	0.37308	0.82611	-0.037994	0.242	0.097961	0.46555	0.86166	0.071716	-0.000458	-1.0393	-0.001831	0.009308	-0.097504	-0.006561	-0.019684
4.564	-0.000305	-0.45456	0.13672	0.004272	0.018158	-0.065002	0.053558	-0.015411	0.13947	0.03952	0.20432	-0.013275	-0.000305	-0.091553	0.19089	0.003662	-0.038757	0.43564	0.92804	0.017395	0.10254	0.010529	0.35004	0.80109	0.41275	-0.005341	-0.53848	-0.002594	-0.1738	0.14862	-0.001221	-0.025482
4.565	-0.009308	-0.4303	0.14526	0.028992	0.024109	-0.047913	0.083008	-0.013428	0.15015	0.061188	0.16098	-0.005035	-0.067902	-0.015106	0.28671	0.028992	-0.019379	0.40375	0.3717	0.095673	0.027466	-0.13733	0.28961	0.5925	0.69443	0.002899	-0.012665	0.000763	-0.28595	0.17227	-0.005341	-0.022888
4.566	-0.002289	-0.37888	0.13519	0.035706	0.02243	-0.044861	0.12085	-0.021057	0.15198	0.005188	-0.1181	0.003967	-0.048676	0.049133	0.004272	0.049744	0.00061	0.38696	0.30395	0.1088	-0.016327	-0.047607	0.26901	0.10895	0.51376	0.024414	0.42847	-0.00824	-0.1561	-0.047607	-0.004883	-0.012512
4.567	-0.007477	-0.37186	0.14648	0.00824	0.023651	-0.022125	0.14496	-0.020142	0.16861	-0.018005	-0.074005	-0.001831	-0.003815	0.11658	0.36087	0.036774	-0.002747	0.11841	0.24445	0.06134	-0.036621	-0.081787	0.19638	-0.40482	0.15945	0.035858	0.52612	-0.001526	0.20309	-0.018158	-0.003967	-0.007782
4.568	-0.014496	-0.41611	0.14282	0.005188	0.020599	-0.01709	0.17532	-0.004578	0.16754	0.002899	-0.010529	-0.007477	-0.031128	0.15305	0.30487	0.035858	-0.008545	-0.00351	0.32486	0.006866	-0.060272	-0.10605	-0.055695	-0.57251	-0.07782	0.013123	0.055237	0.00473	0.37277	-0.086212	-0.003357	-0.009613
4.569	-0.023346	-0.41504	0.12817	-0.013428	0.024719	-0.002136	0.20645	-0.007172	0.1712	-0.017395	-0.058289	-0.000763	0.034485	0.075836	-0.53238	0.03891	-0.00946	-0.1329	0.40894	-0.028534	-0.021973	-0.068054	0.011902	-0.8255	-0.21622	-0.003204	-0.019226	-0.031128	0.30304	-0.25497	-0.001678	-0.008087
4.57	-0.020905	-0.4187	0.12024	-0.017395	0.015411	-0.013885	0.24597	-0.003815	0.18585	-0.034485	-0.16037	0.002136	0.070038	-0.021057	-0.58136	0.02594	0.010986	-0.45166	-1.0425	0.11337	0.088348	-0.045929	0.56946	-0.96497	-0.47546	-0.04303	0.16052	-0.067902	0.15717	-0.4628	0.001984	-0.013428
4.571	-0.016022	-0.38864	0.10681	-0.016479	0.007172	-0.017242	0.25345	-0.002441	0.18692	0.003815	0.007477	0.007172	-0.02182	-0.065613	-0.40039	0.028076	0.033569	-0.68054	-1.0849	0.10284	0.11368	-0.018311	0.77301	-0.85892	-0.49057	-0.048065	-0.16983	-0.14114	0.000305	-0.43182	0	-0.01358
4.572	-0.018311	-0.39963	0.073395	0.013428	0.014038	0.003052	0.30884	-0.002899	0.18356	0.035553	-0.0737	-0.007172	-0.081482	-0.16098	-0.45898	0.030975	0.039063	-0.9137	-0.48401	-0.000458	-0.0383	0.061035	0.58929	-0.77515	-0.22903	0.02594	-0.79056	-0.15121	0.18066	-0.077667	-0.000458	-0.018616
4.573	-0.024872	-0.40924	0.073395	0.043488	0.015564	0.01358	0.30731	-0.012054	0.19623	0.058136	-0.086212	0.002594	-0.11444	-0.17914	-0.29297	0.044708	0.026245	-1.0248	-1.0139	-0.10605	-0.62729	0.19836	0.26077	-0.78995	-0.058289	-0.016937	-0.71533	0.018463	0.30075	-0.061035	-0.003052	-0.012207
4.574	-0.020905	-0.39978	0.072479	0.012054	0.008392	0.017853	0.27435	-0.011749	0.19989	0.034637	-0.1329	0.000916	-0.009003	-0.23682	-0.16174	0.052795	0.023193	-1.0262	-1.3454	-0.072327	-0.69366	0.16342	0.11566	-0.59097	-0.079041	-0.022278	-0.34576	0.27222	0.30136	-0.11383	-0.00351	-0.003357
4.575	-0.019989	-0.38406	0.068359	-0.00824	0.009766	-0.012054	0.27908	-0.015106	0.21271	-0.003357	-0.098114	-0.011597	0.070343	-0.17853	-0.048828	0.033875	0.053253	-0.86945	-0.99655	-0.036011	-0.37949	-0.046997	0.090942	0.14496	0.2179	0.011139	-0.080566	0.10681	0.21378	0.15915	-0.001678	-0.000916
4.576	-0.023804	-0.32028	0.031281	-0.035095	0.010071	-0.016479	0.34424	-0.012817	0.215	0.010986	0.032959	0.004425	-0.027313	-0.17578	0.21088	0.03006	0.01709	-0.63751	0.3717	-0.051117	-0.13428	-0.16495	0.10452	0.84305	0.20508	-0.02655	0.12634	-0.061951	0.095978	1.3283	-0.000458	-0.005951
4.577	-0.02533	-0.27603	-0.041199	-0.028076	0.018311	-0.027771	0.42984	-0.02533	0.21713	0.011597	0.1329	-0.00351	-0.060577	-0.12695	0.24674	0.030975	0.023651	-0.2713	1.4308	-0.062103	-0.29511	-0.13214	-0.29388	0.53055	0.13611	-0.002289	0.70816	-0.14313	-0.064087	1.2923	-0.003357	-0.000153
4.578	-0.02182	-0.3183	-0.051117	0.002289	0.023804	-0.057373	0.46326	-0.007782	0.2153	0.002594	0.049438	-0.005188	0.008545	-0.0354	-0.062714	0.024872	0.057983	-0.052643	0.53543	0.12863	-0.35507	-0.023804	-0.41824	0.009766	0.027313	0.01709	0.86365	0.28397	-0.095215	0.70358	-0.006104	0.002441
4.579	-0.024261	-0.35873	-0.072327	0.035553	0.028076	-0.063171	0.46707	-0.003662	0.21484	-0.010529	-0.20599	0.002747	0.015564	-0.019531	0.90576	0.053406	0.06134	0.1442	0.37155	0.25589	-0.30762	0.21591	-0.29816	-0.42526	-0.26657	-0.005493	0.89386	0.12146	-0.2034	0.15106	0.003357	-0.001221
4.58	-0.027161	-0.42374	-0.088654	0.049286	0.020599	-0.023041	0.41977	-0.005341	0.21652	-0.021667	-0.12726	0.004883	0.007629	-0.006409	-0.16556	0.057526	0.077057	0.28885	0.24429	0.19516	-0.15945	0.23438	-0.16281	-0.5368	-0.49484	-0.022888	0.45349	0.014191	-0.26962	-0.027771	-0.00824	0.002441
4.581	-0.016937	-0.466	-0.11871	0.050659	0.005493	-0.000305	0.38574	-0.006714	0.21011	-0.057068	-0.00351	0.009155	-0.008545	0.041656	-0.088959	0.046082	0.090942	0.37964	-0.37476	0.15305	-0.42725	0.09613	-0.2034	-0.71335	-0.64865	-0.01358	0.8078	-0.046692	-0.41946	-0.12589	0.001526	0.000153
4.582	-0.006866	-0.43106	-0.098572	0.002289	0.012817	0.000763	0.33234	-0.007324	0.20325	-0.040283	0.098267	0.016937	-0.036621	0.057373	-0.23041	0.048218	0.080261	0.4277	0.73685	0.015411	-0.46341	0.008392	-0.64102	-0.39597	-0.56961	0.023041	0.59082	-0.15213	-0.56107	-0.12192	-0.002289	0.000763
4.583	-0.007782	-0.44846	-0.10117	-0.028381	0.001678	0.010529	0.28076	-0.00412	0.19959	-0.012817	-0.008392	0.010834	-0.018921	-0.049744	-0.064545	0.030518	0.071259	0.43716	0.82184	-0.17807	0.16449	-0.11673	-1.2209	-0.12436	-0.40009	0.017853	0.10605	-0.10696	-0.59601	-0.17136	-0.003204	0.003357
4.584	0.01236	-0.43106	-0.10819	-0.026398	0.010834	-0.024261	0.15808	-0.010681	0.19043	0.019836	0.076447	0.00351	-0.076752	-0.14038	0.082855	0.017853	0.050659	0.52368	0.33524	-0.26443	0.23834	0.084686	-1.5054	-0.15747	-0.2214	0.021362	-0.47424	0.067139	-0.12955	-0.39032	-0.001831	-0.000305
